<?xml version="1.0" standalone="no"?>
<!DOCTYPE svg PUBLIC "-//W3C//DTD SVG 20010904//EN"
 "http://www.w3.org/TR/2001/REC-SVG-20010904/DTD/svg10.dtd">
<svg version="1.0" xmlns="http://www.w3.org/2000/svg"
 width="225.000000pt" height="225.000000pt" viewBox="0 0 225.000000 225.000000"
 preserveAspectRatio="xMidYMid meet">
<metadata>
Created by potrace 1.11, written by Peter Selinger 2001-2013
</metadata>
<g transform="translate(0.000000,225.000000) scale(0.100000,-0.100000)"
fill="#000000" stroke="none">
<path d="M985 2239 c-160 -19 -335 -83 -476 -175 -95 -62 -261 -228 -324 -324
-299 -460 -221 -1079 183 -1444 48 -43 45 -46 62 69 25 179 53 224 168 278 63
30 81 35 205 62 43 10 77 24 95 40 35 33 71 34 65 2 -3 -15 24 -80 78 -190 46
-92 84 -166 85 -164 1 1 39 76 84 166 59 119 80 170 76 188 -5 19 -2 23 16 23
12 0 33 -11 47 -24 18 -16 63 -33 150 -55 244 -62 291 -109 322 -323 6 -46 14
-89 18 -96 8 -13 127 102 184 178 271 362 298 859 69 1245 -231 388 -657 598
-1107 544z m326 -531 c15 -27 -1 -39 -30 -24 -20 11 -21 14 -7 19 10 4 15 3
12 -2 -3 -5 1 -11 9 -15 19 -7 19 8 1 27 -8 8 -27 13 -43 11 -27 -4 -27 -3 -3
5 31 10 48 4 61 -21z m-93 0 c-3 -7 -15 -14 -29 -15 -19 -1 -20 -1 -4 4 l20 6
-20 8 c-17 6 -16 8 8 8 19 1 27 -3 25 -11z m-75 -5 c-7 -2 -19 -2 -25 0 -7 3
-2 5 12 5 14 0 19 -2 13 -5z m-46 -9 c-3 -3 -12 -4 -19 -1 -8 3 -5 6 6 6 11 1
17 -2 13 -5z m-57 -14 c0 -5 -2 -10 -4 -10 -3 0 -8 5 -11 10 -3 6 -1 10 4 10
6 0 11 -4 11 -10z m-52 -16 c-34 -18 -35 -23 -4 -21 14 1 25 -2 25 -8 1 -5
-16 -10 -37 -10 -20 0 -42 -3 -49 -8 -21 -13 -23 10 -3 28 11 10 20 15 20 12
0 -3 12 1 28 9 15 7 32 14 37 14 6 -1 -2 -8 -17 -16z m339 -16 c-3 -8 -6 -5
-6 6 -1 11 2 17 5 13 3 -3 4 -12 1 -19z m-287 2 c0 -5 -2 -10 -4 -10 -3 0 -8
5 -11 10 -3 6 -1 10 4 10 6 0 11 -4 11 -10z m270 -11 c9 -15 15 -18 25 -9 9 8
14 7 18 -3 5 -14 -26 -17 -39 -4 -4 4 -12 3 -18 -2 -7 -6 -11 -1 -12 15 -2 29
11 31 26 3z m-435 -79 l-4 -30 252 2 c161 2 251 7 250 13 -1 6 -4 19 -8 30 -5
16 -4 17 4 5 5 -9 11 -22 13 -30 2 -8 8 -18 13 -22 6 -4 -110 -8 -256 -8 -260
0 -266 0 -285 22 -10 12 -13 18 -5 13 11 -6 13 -4 8 7 -6 16 0 28 14 28 5 0 6
-14 4 -30z m567 -196 c2 -64 0 -120 -3 -125 -3 -6 -57 -8 -120 -7 l-113 3 -19
50 c-40 108 -79 113 -118 15 l-26 -65 -113 -3 c-84 -2 -116 1 -122 10 -9 16
-11 222 -1 231 3 4 147 7 319 7 l313 0 3 -116z m-672 56 c0 -11 -5 -20 -11
-20 -5 0 -7 5 -3 12 4 7 3 8 -4 4 -18 -11 -14 -26 6 -26 10 0 13 -3 6 -8 -5
-4 -15 -23 -20 -42 -10 -34 -11 -33 -11 22 -1 44 3 60 15 68 23 13 22 13 22
-10z m725 10 c3 -5 1 -10 -4 -10 -6 0 -11 5 -11 10 0 6 2 10 4 10 3 0 8 -4 11
-10z m14 -146 c-21 -25 -29 -15 -29 36 0 30 4 50 11 50 7 0 10 -17 8 -44 -2
-24 -1 -42 4 -39 4 2 8 25 9 51 l1 47 4 -43 c3 -25 -1 -50 -8 -58z m-740 16
c-1 -38 -5 -70 -10 -70 -5 0 -6 7 -3 15 4 8 1 15 -5 15 -6 0 -11 5 -11 11 0 5
5 7 10 4 6 -3 10 -1 10 4 0 6 -6 11 -12 12 -10 0 -10 2 0 6 6 2 12 20 12 39 0
19 2 34 5 34 3 0 5 -31 4 -70z m352 -3 c-8 -8 -11 -7 -11 4 0 20 13 34 18 19
3 -7 -1 -17 -7 -23z m24 -17 c-3 -5 -12 -10 -18 -10 -7 0 -6 4 3 10 19 12 23
12 15 0z m-15 -31 c0 -5 -4 -9 -10 -9 -5 0 -10 6 -10 13 0 8 -4 7 -10 -3 -5
-8 -10 -10 -10 -4 0 6 3 13 6 17 8 8 34 -3 34 -14z m45 -30 c11 -21 23 -29 43
-30 l27 -1 -25 -8 c-22 -7 -21 -8 15 -11 l40 -2 -35 -4 c-19 -3 -39 -10 -43
-16 -6 -8 -7 -6 -3 5 3 10 1 20 -5 24 -6 3 -14 17 -19 30 -7 17 -15 22 -27 18
-14 -5 -15 -4 -4 4 8 6 10 15 6 22 -5 9 -4 11 4 6 6 -4 18 -20 26 -37z m315
-4 c-7 -8 -17 -15 -23 -15 -5 0 -3 8 6 18 10 10 15 21 14 24 -2 3 1 2 6 -3 7
-5 6 -13 -3 -24z m-369 -2 c7 -10 10 -15 5 -11 -4 3 -17 -3 -29 -15 -12 -12
-22 -16 -25 -9 -2 6 -10 8 -18 5 -25 -9 -15 4 19 26 17 11 33 21 33 21 1 0 8
-8 15 -17z m-336 -3 c3 -5 2 -10 -4 -10 -5 0 -13 5 -16 10 -3 6 -2 10 4 10 5
0 13 -4 16 -10z m65 -40 c-24 -21 -25 -33 -4 -51 15 -12 16 -11 10 11 -6 22
-5 23 5 7 17 -28 -6 -48 -25 -21 -19 25 -28 56 -13 47 6 -4 8 -1 5 8 -4 9 2
14 19 15 24 2 24 2 3 -16z m279 -1 c-16 -10 -23 -4 -14 10 3 6 11 8 17 5 6 -4
5 -9 -3 -15z m45 -11 c-4 -6 -10 -5 -15 3 -14 22 -10 33 6 19 8 -7 12 -17 9
-22z m257 -5 c-8 -15 -10 -15 -11 -2 0 17 10 32 18 25 2 -3 -1 -13 -7 -23z
m-343 6 c13 0 14 -2 3 -6 -8 -3 12 -14 45 -24 44 -14 60 -15 66 -6 5 9 11 8
24 -5 15 -15 15 -16 -7 -16 -13 0 -35 -2 -49 -5 -14 -2 -16 -2 -5 1 13 3 -5
12 -55 28 -41 12 -68 23 -60 23 13 1 13 3 0 12 -12 9 -12 10 3 5 10 -3 26 -6
35 -7z m317 -14 c-1 -14 2 -25 6 -25 5 0 3 -11 -3 -25 -9 -19 -14 -22 -25 -14
-11 10 -11 15 1 34 13 19 13 25 2 34 -7 6 -16 8 -19 4 -4 -3 -7 -1 -7 5 0 7
11 12 24 12 20 0 24 -4 21 -25z m-239 -12 c-6 -6 -36 9 -36 18 0 5 9 4 20 -3
10 -7 18 -14 16 -15z m-171 -23 c-3 -5 -13 -10 -21 -10 -8 0 -14 5 -14 10 0 6
9 10 21 10 11 0 17 -4 14 -10z m115 0 c11 -7 6 -8 -16 -4 -21 4 -36 1 -47 -10
-8 -9 -19 -16 -24 -16 -4 1 3 10 16 20 26 22 48 25 71 10z m-230 -14 c0 -2 -8
-10 -17 -17 -16 -13 -17 -12 -4 4 13 16 21 21 21 13z m400 -18 c0 -10 -51 -10
-67 0 -6 4 6 7 28 7 21 0 39 -3 39 -7z m-280 -2 c0 -3 -4 -8 -10 -11 -5 -3
-10 -1 -10 4 0 6 5 11 10 11 6 0 10 -2 10 -4z m378 -35 c-56 -76 -92 -109 -85
-78 1 7 -7 11 -22 9 -23 -2 -24 -1 -8 16 10 10 14 22 10 25 -3 4 0 7 7 7 10 0
11 3 3 11 -8 8 -17 8 -33 -1 -18 -9 -20 -14 -9 -21 7 -4 10 -11 6 -16 -5 -4
-12 -2 -16 5 -4 8 -15 10 -27 6 -10 -4 1 8 25 26 33 24 46 29 51 19 5 -7 18
-14 30 -16 12 -2 19 1 15 6 -3 6 3 8 14 6 11 -2 22 3 25 11 3 9 10 12 16 9 7
-4 6 -12 -2 -24z m-470 6 c6 3 12 0 12 -7 0 -6 -4 -9 -9 -5 -5 3 -12 1 -15 -4
-9 -13 19 -7 38 8 14 12 16 11 10 -5 -5 -18 -5 -18 9 -1 14 16 15 15 19 -13 4
-29 -6 -43 -14 -19 -2 7 -18 12 -36 13 -18 1 -31 4 -30 8 2 4 -6 14 -17 23
l-20 16 20 -9 c11 -5 26 -7 33 -5z m112 -29 c0 -13 -23 -5 -28 10 -2 7 2 10
12 6 9 -3 16 -11 16 -16z m70 -26 c3 -3 -3 -2 -12 1 -10 4 -18 2 -18 -3 0 -5
8 -11 18 -13 9 -3 2 -4 -16 -3 -38 3 -51 13 -28 22 9 3 13 11 10 16 -6 9 35
-8 46 -20z m-160 -2 c0 8 3 11 6 8 3 -4 4 -8 2 -11 -1 -3 6 -14 16 -26 32 -35
14 -29 -24 8 -19 19 -27 29 -17 22 14 -11 17 -11 17 -1z m249 -16 c10 -9 -55
-3 -69 6 -10 6 -2 7 25 3 22 -3 42 -7 44 -9z m41 6 c0 -5 -4 -10 -9 -10 -6 0
-13 5 -16 10 -3 6 1 10 9 10 9 0 16 -4 16 -10z m-193 -77 c-3 -10 -5 -4 -5 12
0 17 2 24 5 18 2 -7 2 -21 0 -30z m203 33 c0 -2 -7 -9 -15 -16 -12 -10 -15
-10 -15 4 0 9 7 16 15 16 8 0 15 -2 15 -4z m-113 -52 c-3 -3 -12 -4 -19 -1 -8
3 -5 6 6 6 11 1 17 -2 13 -5z"/>
<path d="M926 1642 c-3 -5 1 -9 9 -9 8 0 12 4 9 9 -3 4 -7 8 -9 8 -2 0 -6 -4
-9 -8z"/>
<path d="M988 1633 c7 -3 16 -2 19 1 4 3 -2 6 -13 5 -11 0 -14 -3 -6 -6z"/>
<path d="M1075 1200 c-3 -5 -1 -10 4 -10 6 0 11 5 11 10 0 6 -2 10 -4 10 -3 0
-8 -4 -11 -10z"/>
<path d="M1386 1103 c-6 -14 -5 -15 5 -6 7 7 10 15 7 18 -3 3 -9 -2 -12 -12z"/>
<path d="M1335 1029 c-4 -5 -13 -8 -21 -5 -20 8 -37 -29 -21 -43 15 -12 37 3
37 25 0 7 8 14 18 16 12 2 13 6 5 11 -6 4 -15 2 -18 -4z m-28 -28 c0 -11 -5
-18 -9 -15 -4 3 -5 11 -1 19 7 21 12 19 10 -4z"/>
</g>
</svg>
